<?xml version="1.0" standalone="no"?>
<!DOCTYPE svg PUBLIC "-//W3C//DTD SVG 20010904//EN"
 "http://www.w3.org/TR/2001/REC-SVG-20010904/DTD/svg10.dtd">
<svg version="1.0" xmlns="http://www.w3.org/2000/svg"
 width="477.000000pt" height="477.000000pt" viewBox="0 0 477.000000 477.000000"
 preserveAspectRatio="xMidYMid meet">
<metadata>
Created by potrace 1.14, written by Peter Selinger 2001-2017
</metadata>
<g transform="translate(0.000000,477.000000) scale(0.100000,-0.100000)"
fill="#000000" stroke="none">
<path d="M3770 4764 c-89 -15 -208 -46 -845 -216 -390 -104 -742 -203 -781
-219 -374 -156 -681 -535 -749 -928 -13 -69 -15 -239 -15 -996 l0 -912 -78 27
c-250 89 -506 52 -727 -105 -298 -211 -403 -626 -245 -964 170 -363 590 -537
971 -402 233 83 415 276 491 521 l23 75 5 1405 c6 1523 2 1412 58 1540 44 102
157 223 269 289 67 39 92 46 863 253 606 162 650 172 735 173 71 0 100 -5 136
-21 56 -26 114 -76 145 -126 54 -86 54 -79 54 -1045 0 -491 -2 -893 -4 -893
-3 0 -47 14 -98 31 -167 56 -367 51 -529 -15 -103 -41 -171 -88 -264 -181
-156 -155 -226 -325 -227 -545 0 -343 204 -629 529 -743 77 -27 105 -31 219
-35 110 -4 144 -1 215 17 290 73 497 279 578 574 21 77 21 81 21 1458 0 1515
2 1453 -60 1602 -75 180 -206 295 -404 356 -66 20 -230 35 -286 25z m102
-2942 c66 -29 143 -104 175 -171 37 -76 39 -200 5 -275 -34 -75 -84 -129 -154
-166 -86 -46 -193 -53 -283 -19 -81 30 -164 112 -193 192 -89 236 84 475 333
464 43 -2 88 -12 117 -25z m-2686 -732 c73 -35 126 -91 163 -169 21 -46 26
-70 26 -136 0 -71 -4 -89 -33 -147 -94 -190 -323 -252 -498 -133 -54 37 -78
65 -115 135 -21 39 -24 59 -24 145 0 86 3 106 24 145 37 70 61 98 115 135 104
71 228 80 342 25z"/>
</g>
</svg>
